<svg version="1.1" xmlns="http://www.w3.org/2000/svg" xmlns:xlink="http://www.w3.org/1999/xlink" width="1680" height="855" viewBox="0 0 1680 855"><defs/><g><rect fill="rgb(0,0,0)" stroke="none" x="0" y="0" width="1680" height="855" transform="matrix(1 0 0 1 0 0)" fill-opacity="1"/><path fill="rgb(115,255,218)" stroke="none" paint-order="stroke fill markers" d=" M 840 755 C 839.7397575994528 746.6605726873595 839.7796550753285 721.5760579263938 838.4385455967164 704.9634361241569 C 837.0974361181043 688.3508143219201 832.773967805845 655.2580363635348 831.9533431283274 655.324269186579 C 831.1327184508099 655.3905020096232 832.1736880529988 688.7482112601853 833.514797531611 705.3608330624221 C 834.8559070102231 721.973454864659 838.9191329219352 746.7268055104037 840 755 L 840 755 Z" fill-opacity="0.5"/><path fill="rgb(255,4,0)" stroke="none" paint-order="stroke fill markers" d=" M 830.4533431283274 655.324269186579 C 830.4533431283274 654.495842061879 831.1249160036274 653.824269186579 831.9533431283274 653.824269186579 C 832.7817702530274 653.824269186579 833.4533431283274 654.495842061879 833.4533431283274 655.324269186579 C 833.4533431283274 656.152696311279 832.7817702530274 656.824269186579 831.9533431283274 656.824269186579 C 831.1249160036274 656.824269186579 830.4533431283274 656.152696311279 830.4533431283274 655.324269186579" fill-opacity="1"/><path fill="rgb(115,255,218)" stroke="none" paint-order="stroke fill markers" d=" M 840 755 C 839.069549675668 746.7085144211909 837.0908194016371 721.7019242377776 834.4172980540077 705.2510865271457 C 831.7437767063784 688.8002488165139 824.7714926131893 656.1628402892225 823.958871914224 656.2949737362087 C 823.1462512152588 656.427107183195 826.8680525125869 689.5930494984311 829.5415738602162 706.043887209063 C 832.2150952078456 722.4947249196949 838.2569289767027 746.8406478681771 840 755 L 840 755 Z" fill-opacity="0.5"/><path fill="rgb(255,4,0)" stroke="none" paint-order="stroke fill markers" d=" M 822.458871914224 656.2949737362087 C 822.458871914224 655.4665466115088 823.130444789524 654.7949737362087 823.958871914224 654.7949737362087 C 824.787299038924 654.7949737362087 825.458871914224 655.4665466115088 825.458871914224 656.2949737362087 C 825.458871914224 657.1234008609088 824.787299038924 657.7949737362087 823.958871914224 657.7949737362087 C 823.130444789524 657.7949737362087 822.458871914224 657.1234008609088 822.458871914224 656.2949737362087" fill-opacity="1"/><path fill="rgb(115,255,218)" stroke="none" paint-order="stroke fill markers" d=" M 840 755 C 838.4054036927938 746.810369691764 834.4210165615555 722.0445817743514 830.4324221567629 705.8622181505839 C 826.4438277519703 689.6798545268164 816.8678353616244 657.7089212646903 816.0684335712442 657.9058182573948 C 815.269031780864 658.1027152500993 821.6474170096888 690.8612364830434 825.6360114144813 707.0436001068109 C 829.6246058192739 723.2259637305784 837.6060019024136 747.0072666844685 840 755 L 840 755 Z" fill-opacity="0.5"/><path fill="rgb(255,4,0)" stroke="none" paint-order="stroke fill markers" d=" M 814.5684335712442 657.9058182573948 C 814.5684335712442 657.0773911326949 815.2400064465443 656.4058182573948 816.0684335712442 656.4058182573948 C 816.8968606959443 656.4058182573948 817.5684335712442 657.0773911326949 817.5684335712442 657.9058182573948 C 817.5684335712442 658.7342453820947 816.8968606959443 659.4058182573948 816.0684335712442 659.4058182573948 C 815.2400064465443 659.4058182573948 814.5684335712442 658.7342453820947 814.5684335712442 657.9058182573948" fill-opacity="1"/><path fill="rgb(115,255,218)" stroke="none" paint-order="stroke fill markers" d=" M 840 755 C 837.7516222928198 746.965355570052 831.7875336536098 722.601074119431 826.5097337569186 706.792133420312 C 821.2319338602274 690.9831927211928 809.1142451021835 659.8860076445085 808.3332006198527 660.1463558052855 C 807.552156137522 660.4067039660623 816.545666966243 692.5452816858543 821.8234668629342 708.3542223849735 C 827.1012667596253 724.1631630840925 836.970577810489 747.2257037308289 840 755 L 840 755 Z" fill-opacity="0.5"/><path fill="rgb(255,4,0)" stroke="none" paint-order="stroke fill markers" d=" M 806.8332006198527 660.1463558052855 C 806.8332006198527 659.3179286805854 807.5047734951528 658.6463558052855 808.3332006198527 658.6463558052855 C 809.1616277445528 658.6463558052855 809.8332006198527 659.3179286805854 809.8332006198527 660.1463558052855 C 809.8332006198527 660.9747829299854 809.1616277445528 661.6463558052855 808.3332006198527 661.6463558052855 C 807.5047734951528 661.6463558052855 806.8332006198527 660.9747829299854 806.8332006198527 660.1463558052855" fill-opacity="1"/><path fill="rgb(115,255,218)" stroke="none" paint-order="stroke fill markers" d=" M 840 755 C 837.1123900991657 747.1723222895099 829.2071174259958 723.3669244647066 822.6743405949945 708.0339337370596 C 816.1415637639933 692.7009430094124 801.5608960433252 662.6796909407844 800.8033390139925 663.0020556341176 C 800.0457819846597 663.3244203274506 811.5962215879968 694.635131169411 818.128998418998 709.968121897058 C 824.6617752499992 725.3011126247052 836.354833069833 747.4946869828431 840 755 L 840 755 Z" fill-opacity="0.5"/><path fill="rgb(255,4,0)" stroke="none" paint-order="stroke fill markers" d=" M 799.3033390139925 663.0020556341176 C 799.3033390139925 662.1736285094175 799.9749118892925 661.5020556341176 800.8033390139925 661.5020556341176 C 801.6317661386925 661.5020556341176 802.3033390139925 662.1736285094175 802.3033390139925 663.0020556341176 C 802.3033390139925 663.8304827588175 801.6317661386925 664.5020556341176 800.8033390139925 664.5020556341176 C 799.9749118892925 664.5020556341176 799.3033390139925 663.8304827588175 799.3033390139925 663.0020556341176" fill-opacity="1"/><path fill="rgb(115,255,218)" stroke="none" paint-order="stroke fill markers" d=" M 840 755 C 836.4919937919568 747.4302642405052 826.6973489524703 724.3391858705845 818.9519627517408 709.581585443031 C 811.2065765510114 694.8239850154775 794.2570565802662 666.0725263432429 793.5276827956232 666.454397434679 C 792.7983090109801 666.8362685261152 806.8303338431529 697.1152115640945 814.5757200438824 711.872811991648 C 822.3211062446118 726.6304124192015 835.7626200073137 747.8121353319414 840 755 L 840 755 Z" fill-opacity="0.5"/><path fill="rgb(255,4,0)" stroke="none" paint-order="stroke fill markers" d=" M 792.0276827956232 666.454397434679 C 792.0276827956232 665.625970309979 792.6992556709231 664.954397434679 793.5276827956232 664.954397434679 C 794.3561099203232 664.954397434679 795.0276827956232 665.625970309979 795.0276827956232 666.454397434679 C 795.0276827956232 667.282824559379 794.3561099203232 667.954397434679 793.5276827956232 667.954397434679 C 792.6992556709231 667.954397434679 792.0276827956232 667.282824559379 792.0276827956232 666.454397434679" fill-opacity="1"/><path fill="rgb(255,95,145)" stroke="none" paint-order="stroke fill markers" d=" M 666.4049645396241 510.59243876492025 C 662.2989158690517 503.32904044836795 650.6764362849867 481.0985502913364 641.76867251619 467.01204886560646 C 632.8609087473933 452.92554743987654 613.654048354496 425.6331350031661 612.9583819268439 426.0734302105408 C 612.2627154991919 426.51372541791545 628.6869101814814 455.56731868412464 637.594673950278 469.65382010985456 C 646.5024377190747 483.7403215355845 661.6032494413997 503.7693356557426 666.4049645396241 510.59243876492025 L 666.4049645396241 510.59243876492025 Z" fill-opacity="0.5"/><path fill="rgb(255,4,0)" stroke="none" paint-order="stroke fill markers" d=" M 611.4583819268439 426.0734302105408 C 611.4583819268439 425.2450030858408 612.129954802144 424.5734302105408 612.9583819268439 424.5734302105408 C 613.786809051544 424.5734302105408 614.4583819268439 425.2450030858408 614.4583819268439 426.0734302105408 C 614.4583819268439 426.9018573352408 613.786809051544 427.5734302105408 612.9583819268439 427.5734302105408 C 612.129954802144 427.5734302105408 611.4583819268439 426.9018573352408 611.4583819268439 426.0734302105408" fill-opacity="1"/><path fill="rgb(255,95,145)" stroke="none" paint-order="stroke fill markers" d=" M 666.4049645396241 510.59243876492025 C 662.8969583315809 503.0227030054254 653.1023134920944 479.93162463550476 645.3569272913649 465.1740242079513 C 637.6115410906355 450.41642378039774 620.6620211198904 421.6649651081631 619.9326473352472 422.0468361995993 C 619.2032735506042 422.42870729103544 633.2352983827769 452.70765032901477 640.9806845835064 467.46525075656825 C 648.7260707842358 482.22285118412174 662.1675845469377 503.4045740968616 666.4049645396241 510.59243876492025 L 666.4049645396241 510.59243876492025 Z" fill-opacity="0.5"/><path fill="rgb(4,0,255)" stroke="none" paint-order="stroke fill markers" d=" M 618.4326473352472 422.0468361995993 C 618.4326473352472 421.2184090748993 619.1042202105473 420.5468361995993 619.9326473352472 420.5468361995993 C 620.7610744599473 420.5468361995993 621.4326473352472 421.2184090748993 621.4326473352472 422.0468361995993 C 621.4326473352472 422.8752633242993 620.7610744599473 423.5468361995993 619.9326473352472 423.5468361995993 C 619.1042202105473 423.5468361995993 618.4326473352472 422.8752633242993 618.4326473352472 422.0468361995993" fill-opacity="1"/><path fill="rgb(255,95,145)" stroke="none" paint-order="stroke fill markers" d=" M 666.4049645396241 510.59243876492025 C 663.5173546387898 502.76476105443015 655.6120819656198 478.95936322962683 649.0793051346186 463.62637250197974 C 642.5465283036174 448.2933817743327 627.9658605829493 418.27212970570474 627.2083035536166 418.59449439903784 C 626.4507465242838 418.91685909237094 638.0011861276208 450.22756993433126 644.533962958622 465.56056066197834 C 651.0667397896233 480.8935513896254 662.7597976094571 503.08712574776325 666.4049645396241 510.59243876492025 L 666.4049645396241 510.59243876492025 Z" fill-opacity="0.5"/><path fill="rgb(255,4,0)" stroke="none" paint-order="stroke fill markers" d=" M 625.7083035536166 418.59449439903784 C 625.7083035536166 417.76606727433784 626.3798764289165 417.09449439903784 627.2083035536166 417.09449439903784 C 628.0367306783165 417.09449439903784 628.7083035536166 417.76606727433784 628.7083035536166 418.59449439903784 C 628.7083035536166 419.42292152373784 628.0367306783165 420.09449439903784 627.2083035536166 420.09449439903784 C 626.3798764289165 420.09449439903784 625.7083035536166 419.42292152373784 625.7083035536166 418.59449439903784" fill-opacity="1"/><path fill="rgb(255,95,145)" stroke="none" paint-order="stroke fill markers" d=" M 666.4049645396241 510.59243876492025 C 661.7277991752105 503.6830321494126 648.3543434237761 482.46004512859963 638.341972353143 469.1359990718746 C 628.32960128251 455.8119530151496 606.9887784576322 430.1533952502799 606.3307381158262 430.64816242457016 C 605.6726977740202 431.14292959886035 624.3813592316742 458.7805560608908 634.3937303023072 472.1046021176158 C 644.4061013729402 485.4286481743408 661.0697588334046 504.17779932370286 666.4049645396241 510.59243876492025 L 666.4049645396241 510.59243876492025 Z" fill-opacity="0.5"/><path fill="rgb(255,4,0)" stroke="none" paint-order="stroke fill markers" d=" M 604.8307381158262 430.64816242457016 C 604.8307381158262 429.81973529987016 605.5023109911261 429.14816242457016 606.3307381158262 429.14816242457016 C 607.1591652405261 429.14816242457016 607.8307381158262 429.81973529987016 607.8307381158262 430.64816242457016 C 607.8307381158262 431.47658954927016 607.1591652405261 432.14816242457016 606.3307381158262 432.14816242457016 C 605.5023109911261 432.14816242457016 604.8307381158262 431.47658954927016 604.8307381158262 430.64816242457016" fill-opacity="1"/><path fill="rgb(115,255,218)" stroke="none" paint-order="stroke fill markers" d=" M 666.4049645396241 510.59243876492025 C 661.1872121894427 504.0820440624691 646.1504947425491 484.00524968639843 635.0984504385358 471.53007055021345 C 624.0464061345225 459.0548914140284 600.709238319195 435.1957536790929 600.0926987155445 435.74136394781016 C 599.476159111894 436.2869742165274 620.3471685126195 462.328553026332 631.3992128166328 474.80373216251695 C 642.4512571206461 487.278911298702 660.5706725857922 504.62765433118636 666.4049645396241 510.59243876492025 L 666.4049645396241 510.59243876492025 Z" fill-opacity="0.5"/><path fill="rgb(255,4,0)" stroke="none" paint-order="stroke fill markers" d=" M 598.5926987155445 435.74136394781016 C 598.5926987155445 434.91293682311016 599.2642715908446 434.24136394781016 600.0926987155445 434.24136394781016 C 600.9211258402446 434.24136394781016 601.5926987155445 434.91293682311016 601.5926987155445 435.74136394781016 C 601.5926987155445 436.56979107251016 600.9211258402446 437.24136394781016 600.0926987155445 437.24136394781016 C 599.2642715908446 437.24136394781016 598.5926987155445 436.56979107251016 598.5926987155445 435.74136394781016" fill-opacity="1"/><path fill="rgb(115,255,218)" stroke="none" paint-order="stroke fill markers" d=" M 666.4049645396241 510.59243876492025 C 660.6800225081021 504.5227791908717 644.0753531395559 485.71988721245555 632.0553123504923 474.1744813206289 C 620.0352715614287 462.62907542880225 594.8548765312622 440.7260901576899 594.2847198052426 441.3200034139603 C 593.7145630792229 441.91391667023083 616.6143312053108 466.192554966425 628.6343719943744 477.73796085825165 C 640.654412783438 489.28336675007836 660.1098657820825 505.11669244714216 666.4049645396241 510.59243876492025 L 666.4049645396241 510.59243876492025 Z" fill-opacity="0.5"/><path fill="rgb(255,4,0)" stroke="none" paint-order="stroke fill markers" d=" M 592.7847198052426 441.3200034139603 C 592.7847198052426 440.49157628926037 593.4562926805426 439.8200034139603 594.2847198052426 439.8200034139603 C 595.1131469299426 439.8200034139603 595.7847198052426 440.49157628926037 595.7847198052426 441.3200034139603 C 595.7847198052426 442.14843053866036 595.1131469299426 442.8200034139603 594.2847198052426 442.8200034139603 C 593.4562926805426 442.8200034139603 592.7847198052426 442.14843053866036 592.7847198052426 441.3200034139603" fill-opacity="1"/><path fill="rgb(255,95,145)" stroke="none" paint-order="stroke fill markers" d=" M 666.4049645396241 510.59243876492025 C 661.7277991752105 503.6830321494126 648.3543434237761 482.46004512859963 638.341972353143 469.1359990718746 C 628.32960128251 455.8119530151496 606.9887784576322 430.1533952502799 606.3307381158262 430.64816242457016 C 605.6726977740202 431.14292959886035 624.3813592316742 458.7805560608908 634.3937303023072 472.1046021176158 C 644.4061013729402 485.4286481743408 661.0697588334046 504.17779932370286 666.4049645396241 510.59243876492025 L 666.4049645396241 510.59243876492025 Z" fill-opacity="0.5"/><path fill="rgb(255,4,0)" stroke="none" paint-order="stroke fill markers" d=" M 604.8307381158262 430.64816242457016 C 604.8307381158262 429.81973529987016 605.5023109911261 429.14816242457016 606.3307381158262 429.14816242457016 C 607.1591652405261 429.14816242457016 607.8307381158262 429.81973529987016 607.8307381158262 430.64816242457016 C 607.8307381158262 431.47658954927016 607.1591652405261 432.14816242457016 606.3307381158262 432.14816242457016 C 605.5023109911261 432.14816242457016 604.8307381158262 431.47658954927016 604.8307381158262 430.64816242457016" fill-opacity="1"/><path fill="rgb(115,255,218)" stroke="none" paint-order="stroke fill markers" d=" M 666.4049645396241 510.59243876492025 C 660.210939889017 505.0037475886701 642.1508993331092 487.60104796734225 629.2408166359817 477.0602917074193 C 616.3307339388541 466.51953544749637 589.466501752772 446.7112751128052 588.9444683568586 447.3479012053825 C 588.4224349609452 447.98452729795986 613.1985335633735 470.3392920029605 626.1086162605011 480.88004826288346 C 639.0186989576287 491.4208045228064 659.6889064931036 505.64037368124747 666.4049645396241 510.59243876492025 L 666.4049645396241 510.59243876492025 Z" fill-opacity="0.5"/><path fill="rgb(255,4,0)" stroke="none" paint-order="stroke fill markers" d=" M 587.4444683568586 447.3479012053825 C 587.4444683568586 446.5194740806825 588.1160412321586 445.8479012053825 588.9444683568586 445.8479012053825 C 589.7728954815586 445.8479012053825 590.4444683568586 446.5194740806825 590.4444683568586 447.3479012053825 C 590.4444683568586 448.1763283300825 589.7728954815586 448.8479012053825 588.9444683568586 448.8479012053825 C 588.1160412321586 448.8479012053825 587.4444683568586 448.1763283300825 587.4444683568586 447.3479012053825" fill-opacity="1"/><path fill="rgb(115,255,218)" stroke="none" paint-order="stroke fill markers" d=" M 666.4049645396241 510.59243876492025 C 659.7805501598804 505.5197477556339 640.3748760260562 489.6240384880547 626.6584782611619 480.1562927092021 C 612.9420804962676 470.6885469303495 584.5741469556654 453.1083278520845 584.1065779502585 453.78596409180466 C 583.6390089448515 454.4636003315248 610.1366664638264 474.7543643686703 623.8530642287205 484.22211014752287 C 637.5694619936148 493.68985592637546 659.3129811544735 506.197383995354 666.4049645396241 510.59243876492025 L 666.4049645396241 510.59243876492025 Z" fill-opacity="0.5"/><path fill="rgb(255,4,0)" stroke="none" paint-order="stroke fill markers" d=" M 582.6065779502585 453.78596409180466 C 582.6065779502585 452.95753696710466 583.2781508255584 452.28596409180466 584.1065779502585 452.28596409180466 C 584.9350050749584 452.28596409180466 585.6065779502585 452.95753696710466 585.6065779502585 453.78596409180466 C 585.6065779502585 454.61439121650466 584.9350050749584 455.28596409180466 584.1065779502585 455.28596409180466 C 583.2781508255584 455.28596409180466 582.6065779502585 454.61439121650466 582.6065779502585 453.78596409180466" fill-opacity="1"/><path fill="rgb(115,255,218)" stroke="none" paint-order="stroke fill markers" d=" M 666.4049645396241 510.59243876492025 C 659.394616713716 506.0696849621117 638.7766343139166 491.78924928140214 624.342877584176 483.4559159480688 C 609.9091208544353 475.1225826147355 580.2154852391049 459.88026449263646 579.8024241611802 460.59243876492025 C 579.3893630832556 461.3046130372041 607.4307543868877 479.39562824843836 621.8645111166284 487.72896158177167 C 636.298267846369 496.06229491510504 658.9815556357914 506.7818592343955 666.4049645396241 510.59243876492025 L 666.4049645396241 510.59243876492025 Z" fill-opacity="0.5"/><path fill="rgb(255,4,0)" stroke="none" paint-order="stroke fill markers" d=" M 578.3024241611802 460.59243876492025 C 578.3024241611802 459.76401164022025 578.9739970364802 459.09243876492025 579.8024241611802 459.09243876492025 C 580.6308512858802 459.09243876492025 581.3024241611802 459.76401164022025 581.3024241611802 460.59243876492025 C 581.3024241611802 461.42086588962025 580.6308512858802 462.09243876492025 579.8024241611802 462.09243876492025 C 578.9739970364802 462.09243876492025 578.3024241611802 461.42086588962025 578.3024241611802 460.59243876492025" fill-opacity="1"/><path fill="rgb(115,255,218)" stroke="none" paint-order="stroke fill markers" d=" M 666.4049645396241 510.59243876492025 C 659.0513093790428 506.64745083584114 637.3405408196426 494.0673872138299 622.2830335761363 486.9225111904457 C 607.2255263326299 479.7776351670614 576.4101180009296 466.97808278984087 576.0599210785858 467.7231826246148 C 575.7097241562421 468.4682824593888 605.1243447985673 484.2482341757052 620.1818520420737 491.3931101990894 C 635.23935928558 498.53798622247365 658.701112456699 507.3925506706151 666.4049645396241 510.59243876492025 L 666.4049645396241 510.59243876492025 Z" fill-opacity="0.5"/><path fill="rgb(255,4,0)" stroke="none" paint-order="stroke fill markers" d=" M 574.5599210785858 467.7231826246148 C 574.5599210785858 466.8947554999148 575.2314939538859 466.2231826246148 576.0599210785858 466.2231826246148 C 576.8883482032859 466.2231826246148 577.5599210785858 466.8947554999148 577.5599210785858 467.7231826246148 C 577.5599210785858 468.5516097493148 576.8883482032859 469.2231826246148 576.0599210785858 469.2231826246148 C 575.2314939538859 469.2231826246148 574.5599210785858 468.5516097493148 574.5599210785858 467.7231826246148" fill-opacity="1"/><path fill="rgb(255,95,145)" stroke="none" paint-order="stroke fill markers" d=" M 726.479190963422 590.5367151052703 C 723.3909522780034 582.4326267762327 717.9621299215432 555.2362311877697 707.9497588509103 541.9121851310447 C 697.9373877802773 528.5881390743197 670.2408582394198 507.70830816357005 666.4049645396241 510.59243876492025 C 662.5690708398283 513.4765693662704 674.9220255815028 545.8929226824208 684.9343966521358 559.2169687391458 C 694.9467677227688 572.5410147958709 719.5550585782075 585.3167573775829 726.479190963422 590.5367151052703 L 726.479190963422 590.5367151052703 Z" fill-opacity="0.5"/><path fill="rgb(255,4,0)" stroke="none" paint-order="stroke fill markers" d=" M 664.9049645396241 510.59243876492025 C 664.9049645396241 509.76401164022025 665.576537414924 509.09243876492025 666.4049645396241 509.09243876492025 C 667.233391664324 509.09243876492025 667.9049645396241 509.76401164022025 667.9049645396241 510.59243876492025 C 667.9049645396241 511.42086588962025 667.233391664324 512.0924387649202 666.4049645396241 512.0924387649202 C 665.576537414924 512.0924387649202 664.9049645396241 511.42086588962025 664.9049645396241 510.59243876492025" fill-opacity="1"/><path fill="rgb(115,255,218)" stroke="none" paint-order="stroke fill markers" d=" M 786.5534173872198 670.4809914456205 C 783.7540744616185 662.1596882595774 779.7697309042446 633.8772183860872 769.7573598336116 620.5531723293622 C 759.7449887629787 607.2291262726371 730.8928761828522 587.2181547899092 726.479190963422 590.5367151052703 C 722.0655057439917 593.8552754206314 733.2628774463972 627.1404881648037 743.2752485170301 640.4645342215288 C 753.2876195876631 653.7885802782538 779.3403892421882 665.4782485749386 786.5534173872198 670.4809914456205 L 786.5534173872198 670.4809914456205 Z" fill-opacity="0.5"/><path fill="rgb(0,255,4)" stroke="none" paint-order="stroke fill markers" d=" M 724.979190963422 590.5367151052703 C 724.979190963422 589.7082879805704 725.6507638387219 589.0367151052703 726.479190963422 589.0367151052703 C 727.3076180881219 589.0367151052703 727.979190963422 589.7082879805704 727.979190963422 590.5367151052703 C 727.979190963422 591.3651422299704 727.3076180881219 592.0367151052703 726.479190963422 592.0367151052703 C 725.6507638387219 592.0367151052703 724.979190963422 591.3651422299704 724.979190963422 590.5367151052703" fill-opacity="1"/><path fill="rgb(115,255,218)" stroke="none" paint-order="stroke fill markers" d=" M 840 755 C 838.1845602985258 746.2868491713604 838.015125559951 716.8075964538918 829.1073617911544 702.7210950281619 C 820.1995980223577 688.634593602432 791.830301753068 667.1411912140711 786.5534173872198 670.4809914456205 C 781.2765330213717 673.82079167717 788.5382918272688 708.6733949917287 797.4460555960655 722.7598964174587 C 806.3538193648621 736.8463978431886 832.9076759326775 749.6266494029097 840 755 L 840 755 Z" fill-opacity="0.5"/><path fill="rgb(255,4,0)" stroke="none" paint-order="stroke fill markers" d=" M 785.0534173872198 670.4809914456205 C 785.0534173872198 669.6525643209205 785.7249902625199 668.9809914456205 786.5534173872198 668.9809914456205 C 787.3818445119199 668.9809914456205 788.0534173872198 669.6525643209205 788.0534173872198 670.4809914456205 C 788.0534173872198 671.3094185703205 787.3818445119199 671.9809914456205 786.5534173872198 671.9809914456205 C 785.7249902625199 671.9809914456205 785.0534173872198 671.3094185703205 785.0534173872198 670.4809914456205" fill-opacity="1"/><path fill="rgb(115,255,218)" stroke="none" paint-order="stroke fill markers" d=" M 840 855 C 844.5682730923695 846.6666666666666 867.4096385542168 821.6666666666666 867.4096385542168 805 C 867.4096385542168 788.3333333333334 849.1365461847389 755 840 755 C 830.8634538152611 755 812.5903614457832 788.3333333333334 812.5903614457832 805 C 812.5903614457832 821.6666666666666 835.4317269076305 846.6666666666666 840 855 L 840 855 Z" fill-opacity="0.5"/><path fill="rgb(115,255,218)" stroke="none" paint-order="stroke fill markers" d=" M 838.5 755 C 838.5 754.1715728753 839.1715728753 753.5 840 753.5 C 840.8284271247 753.5 841.5 754.1715728753 841.5 755 C 841.5 755.8284271247 840.8284271247 756.5 840 756.5 C 839.1715728753 756.5 838.5 755.8284271247 838.5 755" fill-opacity="0.5"/><path fill="rgb(255,4,0)" stroke="none" paint-order="stroke fill markers" d=" M 1180 795 L 1190 795 L 1190 805 L 1180 805 L 1180 795 Z" fill-opacity="1"/><g><text fill="rgb(0,255,255)" stroke="none" font-family="sans-serif" font-size="10px" font-style="normal" font-weight="normal" text-decoration="normal" x="360" y="-53" text-anchor="start" dominant-baseline="alphabetic" transform="matrix(1 0 0 1 840 855)" fill-opacity="1">computerscience</text></g><path fill="rgb(0,255,4)" stroke="none" paint-order="stroke fill markers" d=" M 1320 795 L 1330 795 L 1330 805 L 1320 805 L 1320 795 Z" fill-opacity="1"/><g><text fill="rgb(0,255,255)" stroke="none" font-family="sans-serif" font-size="10px" font-style="normal" font-weight="normal" text-decoration="normal" x="500" y="-53" text-anchor="start" dominant-baseline="alphabetic" transform="matrix(1 0 0 1 840 855)" fill-opacity="1">neuro</text></g><path fill="rgb(4,0,255)" stroke="none" paint-order="stroke fill markers" d=" M 1460 795 L 1470 795 L 1470 805 L 1460 805 L 1460 795 Z" fill-opacity="1"/><g><text fill="rgb(0,255,255)" stroke="none" font-family="sans-serif" font-size="10px" font-style="normal" font-weight="normal" text-decoration="normal" x="640" y="-53" text-anchor="start" dominant-baseline="alphabetic" transform="matrix(1 0 0 1 840 855)" fill-opacity="1">educ</text></g></g></svg>